<svg width="12" height="12" viewBox="0 0 12 12" fill="none" xmlns="http://www.w3.org/2000/svg">
<path d="M3.5 8.5065L5.7065 8.499L10.5225 3.729C10.7115 3.54 10.8155 3.289 10.8155 3.022C10.8155 2.755 10.7115 2.504 10.5225 2.315L9.7295 1.522C9.3515 1.144 8.692 1.146 8.317 1.5205L3.5 6.2915V8.5065ZM9.0225 2.229L9.817 3.0205L9.0185 3.8115L8.2255 3.019L9.0225 2.229ZM4.5 6.7085L7.515 3.722L8.308 4.515L5.2935 7.5005L4.5 7.503V6.7085Z" fill="#F2E7FF"/>
<path d="M2.5 10.5H9.5C10.0515 10.5 10.5 10.0515 10.5 9.5V5.166L9.5 6.166V9.5H4.079C4.066 9.5 4.0525 9.505 4.0395 9.505C4.023 9.505 4.0065 9.5005 3.9895 9.5H2.5V2.5H5.9235L6.9235 1.5H2.5C1.9485 1.5 1.5 1.9485 1.5 2.5V9.5C1.5 10.0515 1.9485 10.5 2.5 10.5Z" fill="#F2E7FF"/>
</svg>
